<?xml version="1.0" encoding="UTF-8" standalone="no"?>
<!-- Created with Inkscape (http://www.inkscape.org/) -->

<svg
   xmlns:dc="http://purl.org/dc/elements/1.1/"
   xmlns:cc="http://creativecommons.org/ns#"
   xmlns:rdf="http://www.w3.org/1999/02/22-rdf-syntax-ns#"
   xmlns:svg="http://www.w3.org/2000/svg"
   xmlns="http://www.w3.org/2000/svg"
   xmlns:xlink="http://www.w3.org/1999/xlink"
   xmlns:sodipodi="http://sodipodi.sourceforge.net/DTD/sodipodi-0.dtd"
   xmlns:inkscape="http://www.inkscape.org/namespaces/inkscape"
   width="297mm"
   height="210mm"
   viewBox="0 0 297 210"
   version="1.1"
   id="svg8"
   inkscape:version="0.92.2 5c3e80d, 2017-08-06"
   sodipodi:docname="logo.svg">
  <defs
     id="defs2">
    <linearGradient
       inkscape:collect="always"
       id="linearGradient831">
      <stop
         style="stop-color:#09bbad;stop-opacity:1"
         offset="0"
         id="stop827" />
      <stop
         style="stop-color:#0fea89;stop-opacity:0"
         offset="1"
         id="stop829" />
    </linearGradient>
    <linearGradient
       inkscape:collect="always"
       xlink:href="#linearGradient831"
       id="linearGradient835"
       gradientUnits="userSpaceOnUse"
       x1="53.126724"
       y1="191.0874"
       x2="76.448486"
       y2="150.72972" />
    <linearGradient
       inkscape:collect="always"
       xlink:href="#linearGradient831"
       id="linearGradient908"
       gradientUnits="userSpaceOnUse"
       x1="53.126724"
       y1="191.0874"
       x2="76.448486"
       y2="150.72972"
       gradientTransform="matrix(1.2324279,0,0,1.2324279,-20.512517,51.844807)" />
    <linearGradient
       inkscape:collect="always"
       xlink:href="#linearGradient831"
       id="linearGradient940"
       x1="-101.23777"
       y1="-217.86365"
       x2="-101.23777"
       y2="-208.21738"
       gradientUnits="userSpaceOnUse" />
    <linearGradient
       inkscape:collect="always"
       xlink:href="#linearGradient831"
       id="linearGradient942"
       gradientUnits="userSpaceOnUse"
       x1="-76.992592"
       y1="-227.5099"
       x2="-101.23777"
       y2="-208.21738" />
    <linearGradient
       inkscape:collect="always"
       xlink:href="#linearGradient831"
       id="linearGradient1693"
       gradientUnits="userSpaceOnUse"
       x1="53.126724"
       y1="191.0874"
       x2="76.448486"
       y2="150.72972"
       gradientTransform="translate(0,-42.333333)" />
  </defs>
  <sodipodi:namedview
     id="base"
     pagecolor="#ffffff"
     bordercolor="#666666"
     borderopacity="1.0"
     inkscape:pageopacity="0.0"
     inkscape:pageshadow="2"
     inkscape:zoom="0.98994949"
     inkscape:cx="654.39576"
     inkscape:cy="446.77871"
     inkscape:document-units="mm"
     inkscape:current-layer="layer1"
     showgrid="false"
     inkscape:window-width="1920"
     inkscape:window-height="1155"
     inkscape:window-x="0"
     inkscape:window-y="1"
     inkscape:window-maximized="1"
     inkscape:measure-start="489.464,382.143"
     inkscape:measure-end="489.464,466.429" />
  <metadata
     id="metadata5">
    <rdf:RDF>
      <cc:Work
         rdf:about="">
        <dc:format>image/svg+xml</dc:format>
        <dc:type
           rdf:resource="http://purl.org/dc/dcmitype/StillImage" />
        <dc:title />
      </cc:Work>
    </rdf:RDF>
  </metadata>
  <g
     inkscape:label="Layer 1"
     inkscape:groupmode="layer"
     id="layer1"
     transform="translate(0,-87)">
    <g
       inkscape:export-ydpi="153.267"
       inkscape:export-xdpi="153.267"
       id="g1697"
       style="font-style:normal;font-variant:normal;font-weight:normal;font-stretch:normal;font-size:17.39092827px;line-height:1.25;font-family:Roboto;-inkscape-font-specification:Roboto;letter-spacing:0px;word-spacing:0px;fill:#ffffff;fill-opacity:1;stroke:none;stroke-width:0.32607993"
       transform="scale(1.1440333,0.87410044)"
       aria-label="E">
      <path
         id="path1695"
         d="M 77.083519,293.36639 H 48.408866 q -1.65078,0 -3.607259,-0.58083 -1.95648,-0.58083 -3.637829,-1.89534 -1.65078,-1.34508 -2.78187,-3.4544 -1.100519,-2.1399 -1.100519,-5.22747 v -28.67466 q 0,-0.82539 0.3057,-1.55907 0.305699,-0.73368 0.825389,-1.28394 0.55026,-0.55026 1.28394,-0.85596 0.73368,-0.3057 1.58964,-0.3057 h 35.797461 v 7.9482 H 45.229587 v 24.73113 q 0,1.55907 0.82539,2.38446 0.825389,0.82539 2.415029,0.82539 h 28.613513 z"
         style="font-style:normal;font-variant:normal;font-weight:normal;font-stretch:normal;font-size:62.60734558px;font-family:'audio wide';-inkscape-font-specification:'audio wide';fill:#ffffff;fill-opacity:1;stroke-width:0.32607993" />
    </g>
    <g
       inkscape:export-ydpi="153.267"
       inkscape:export-xdpi="153.267"
       aria-label="v"
       transform="matrix(-1.1558872,0,0,-1.1558872,-28.97088,-14.617478)"
       style="font-style:normal;font-variant:normal;font-weight:normal;font-stretch:normal;font-size:14.11111069px;line-height:1.25;font-family:Silom;-inkscape-font-specification:Silom;letter-spacing:0px;word-spacing:0px;fill:#ffffff;fill-opacity:1;stroke:none;stroke-width:0.26473171;stroke-miterlimit:4;stroke-dasharray:none"
       id="g1701">
      <path
         id="path1699"
         style="font-style:normal;font-variant:normal;font-weight:bold;font-stretch:normal;font-size:35.27777863px;font-family:'.Arabic UI Text';-inkscape-font-specification:'.Arabic UI Text Bold';stroke-width:0.26473171;fill:#ffffff;fill-opacity:1;stroke:none;stroke-miterlimit:4;stroke-dasharray:none"
         d="m -70.825868,-227.50991 h -6.166722 l -4.805908,13.33252 -4.788683,-13.33252 h -6.183947 l 7.596436,19.29253 h 6.769613 z m -30.411902,19.29253 h 6.166721 l 4.805908,-13.33252 4.788683,13.33252 h 6.183946 l -7.596435,-19.29254 h -6.769613 z"
         inkscape:connector-curvature="0" />
    </g>
    <text
       inkscape:export-ydpi="153.267"
       inkscape:export-xdpi="153.267"
       id="text1691"
       y="195.97215"
       x="43.297665"
       style="font-style:normal;font-variant:normal;font-weight:normal;font-stretch:normal;font-size:14.11111069px;line-height:1.25;font-family:Roboto;-inkscape-font-specification:Roboto;letter-spacing:0px;word-spacing:0px;fill:#ffffff;fill-opacity:1;stroke:none;stroke-width:0.26458332"
       xml:space="preserve"><tspan
         style="font-style:normal;font-variant:normal;font-weight:normal;font-stretch:normal;font-size:50.79999924px;font-family:'audio wide';-inkscape-font-specification:'audio wide';fill:#ffffff;fill-opacity:1;stroke-width:0.26458332"
         y="195.97215"
         x="43.297665"
         id="tspan1689"
         sodipodi:role="line">E</tspan></text>
    <text
       xml:space="preserve"
       style="font-style:normal;font-variant:normal;font-weight:normal;font-stretch:normal;font-size:14.11111069px;line-height:1.25;font-family:Roboto;-inkscape-font-specification:Roboto;letter-spacing:0px;word-spacing:0px;fill:#000000;fill-opacity:1;stroke:none;stroke-width:0.26458332"
       x="85.152954"
       y="170.56219"
       id="text817"
       inkscape:export-xdpi="153.267"
       inkscape:export-ydpi="153.267"><tspan
         sodipodi:role="line"
         id="tspan815"
         x="85.152954"
         y="170.56219"
         style="stroke-width:0.26458332">SiriDB</tspan></text>
    <text
       xml:space="preserve"
       style="font-style:normal;font-variant:normal;font-weight:normal;font-stretch:normal;font-size:14.11111069px;line-height:1.25;font-family:Roboto;-inkscape-font-specification:Roboto;letter-spacing:0px;word-spacing:0px;fill:#000000;fill-opacity:1;stroke:none;stroke-width:0.26458332"
       x="87.306831"
       y="195.97"
       id="text821"
       inkscape:export-xdpi="153.267"
       inkscape:export-ydpi="153.267"><tspan
         sodipodi:role="line"
         id="tspan819"
         x="87.306831"
         y="195.97"
         style="font-style:normal;font-variant:normal;font-weight:normal;font-stretch:normal;font-size:42.33333468px;font-family:'audio wide';-inkscape-font-specification:'audio wide';stroke-width:0.26458332">  odo</tspan></text>
    <text
       xml:space="preserve"
       style="font-style:normal;font-variant:normal;font-weight:normal;font-stretch:normal;font-size:14.11111069px;line-height:1.25;font-family:Roboto;-inkscape-font-specification:Roboto;letter-spacing:0px;word-spacing:0px;fill:url(#linearGradient835);fill-opacity:1.0;stroke:none;stroke-width:0.26458332"
       x="43.297665"
       y="195.97212"
       id="text825"
       inkscape:export-xdpi="153.267"
       inkscape:export-ydpi="153.267"><tspan
         sodipodi:role="line"
         id="tspan823"
         x="43.297665"
         y="195.97212"
         style="stroke-width:0.26458332;font-size:50.8px;-inkscape-font-specification:'audio wide';font-family:'audio wide';font-weight:normal;font-style:normal;font-stretch:normal;font-variant:normal;fill:url(#linearGradient835);fill-opacity:1.0">E</tspan></text>
    <text
       xml:space="preserve"
       style="font-style:normal;font-variant:normal;font-weight:normal;font-stretch:normal;font-size:14.11111069px;line-height:1.25;font-family:Silom;-inkscape-font-specification:Silom;letter-spacing:0px;word-spacing:0px;fill:#000000;fill-opacity:1;stroke:none;stroke-width:0.26458332"
       x="102.09695"
       y="145.45818"
       id="text832"><tspan
         sodipodi:role="line"
         id="tspan830"
         x="102.09695"
         y="157.83583"
         style="stroke-width:0.26458332" /></text>
    <path
       style="fill:#000000;fill-opacity:0;stroke-width:0.26458332"
       id="path836"
       d="m 85.569538,275.61096 c 0.111524,-1.52652 0.635576,-2.98337 1.129188,-4.41997 0.459042,-1.49415 1.073775,-2.92054 1.783961,-4.30887 0.564878,-1.10549 1.163516,-2.19018 1.756061,-3.28034 0.420844,-0.81098 0.815422,-1.63298 1.266873,-2.42759 0.454149,-0.72008 0.895839,-1.44129 1.309896,-2.18561 0.394793,-0.75329 0.910215,-1.4215 1.402816,-2.1102 0.297378,-0.44971 0.599334,-0.88544 0.967264,-1.28095 0.874701,-1.83421 0.06881,-0.19575 4.979383,-3.059 0.0894,-0.0522 0.28927,0.032 0.37085,0.076 0.2155,0.27544 0.26381,0.56398 0.26029,0.89644 0.32592,0.42848 0.6723,0.84613 1.07322,1.21787 0.95124,1.05139 1.89788,2.1021 2.85247,3.15081 0.8418,0.95916 1.61374,1.98964 2.24602,3.0988 0.37016,0.65137 0.8462,1.2606 1.14417,1.94908 0.24102,0.32817 0.134,0.77171 0.27393,1.1203 0.17779,0.73918 0.35058,1.48197 0.51714,2.22654 0.21098,0.59076 0.42532,1.16551 0.53626,1.78748 0.0348,0.29203 0.0213,0.14375 0.0396,0.44489 0,0 -5.00869,2.57829 -5.00869,2.57829 v 0 c -0.005,-0.26907 -7.9e-4,-0.13694 -0.0136,-0.3964 -0.0626,-0.62727 -0.26874,-1.18465 -0.49378,-1.76837 -0.13512,-0.70808 -0.35661,-1.38623 -0.47778,-2.09532 -0.22002,-0.44123 -0.0998,-0.71361 -0.27817,-1.15149 -0.26008,-0.67714 -0.73853,-1.27152 -1.07873,-1.90922 -0.59371,-1.08123 -1.33764,-2.07312 -2.134785,-3.01242 -0.96375,-1.0265 -1.889387,-2.0849 -2.88108,-3.08512 -0.506634,-0.47535 -0.984477,-0.99882 -1.347774,-1.59237 -0.0016,-0.15257 -0.05821,-0.61474 0.153757,-0.18104 -1.578366,1.67299 5.737362,-4.30495 4.415662,-2.59557 -0.19446,0.55272 -0.783348,0.79877 -0.958542,1.37446 -0.554201,0.63129 -1.036015,1.32521 -1.444625,2.05648 -0.473569,0.69208 -0.745953,1.5127 -1.322435,2.14454 -0.546441,1.16654 0.185023,-0.3309 -0.44573,0.76314 -0.30992,0.53756 -0.500036,1.14587 -0.833282,1.67258 -0.213166,0.42671 -0.26167,0.54966 -0.520707,0.95976 -0.102394,0.16211 -0.233765,0.30619 -0.323435,0.47567 -0.318691,0.60231 -0.549992,1.28103 -0.947153,1.84952 -0.424913,0.87765 -0.19164,0.45007 -0.699876,1.28271 -0.463137,0.94461 -0.756528,1.98059 -1.12776,2.96215 -0.45385,1.3844 -1.042791,2.75535 -1.142981,4.22582 0,0 -4.997828,2.54652 -4.997828,2.54652 z"
       inkscape:connector-curvature="0" />
    <path
       style="fill:#000000;fill-opacity:0;stroke-width:0.26458332"
       id="path838"
       d="m 49.755239,263.4244 c 1.342594,-2.70658 2.743571,-5.38113 4.042624,-8.10987 1.807054,-3.52736 3.397483,-7.162 4.745377,-10.88824 0.642633,-1.86964 1.196075,-3.76607 1.767755,-5.65798 0.881004,-2.67803 0.123568,-0.90542 5.389094,-3.49752 0.272169,0.52721 0.472239,1.09425 0.748408,1.62933 0.955273,1.65143 1.87153,3.30946 2.643032,5.05689 0.903623,1.70187 1.72925,3.43503 2.458307,5.2182 0.542232,1.72229 1.135097,3.4258 1.691537,5.14374 0.541932,2.2845 1.325033,4.49856 1.978257,6.75124 0.483373,1.739 0.981618,3.46626 1.646002,5.14511 0.20931,0.59736 0.100651,0.3237 0.317265,0.82437 0,0 -4.888505,2.73785 -4.888505,2.73785 v 0 c -0.21645,-0.54315 -0.11556,-0.25703 -0.297093,-0.86034 -0.593397,-1.72285 -1.120851,-3.46181 -1.587701,-5.22484 -0.635005,-2.24988 -1.417815,-4.45268 -1.98986,-6.72076 -0.56589,-1.70052 -1.16782,-3.38582 -1.699212,-5.09788 -0.709721,-1.78696 -1.50159,-3.52747 -2.407669,-5.2249 -0.773001,-1.73416 -1.683612,-3.37666 -2.710338,-4.9732 -0.293032,-0.53548 -0.536067,-1.08738 -0.807657,-1.62019 4.430681,-2.53166 5.686682,-4.49381 4.562922,-1.66742 -0.630793,1.92517 -1.282753,3.84233 -1.931929,5.76163 -1.370875,3.73854 -2.978409,7.39054 -4.7626,10.95017 -0.17634,0.37749 -1.396958,2.9958 -1.599687,3.40932 -0.458216,0.93465 -0.984539,1.83547 -1.426954,2.7777 -1.480547,3.15319 0.333465,-0.44415 -0.79915,1.77372 0,0 -5.082225,2.36387 -5.082225,2.36387 z"
       inkscape:connector-curvature="0" />
    <path
       style="fill:#000000;fill-opacity:0;stroke-width:0.26458332"
       id="path844"
       d="m 34.283671,232.20796 c 0.0793,-1.22875 0.435107,-2.41424 0.830686,-3.57255 0.409561,-1.27324 1.042008,-2.44646 1.778055,-3.55672 0.743588,-0.96528 1.489001,-1.92585 2.195015,-2.91927 0.61137,-0.88951 1.186622,-1.80287 1.783599,-2.70202 0.309012,-0.40303 0.551471,-0.86695 0.905679,-1.23447 0.781272,-0.85716 2.310646,-2.3566 2.835085,-1.11445 0.100959,0.45835 0.304879,0.88876 0.503824,1.31195 0.335066,0.79051 0.677574,1.57703 0.982094,2.38097 0.279932,0.92984 0.580972,1.85392 0.788011,2.80326 0.19204,0.89519 0.392983,1.78858 0.574905,2.68583 0.142301,0.72547 0.284441,1.4512 0.435978,2.17492 0.146484,0.57566 0.286507,1.1533 0.448482,1.72496 0.13848,0.48629 0.343593,0.94879 0.513324,1.42392 0.08047,0.26462 0.230507,0.49549 0.34844,0.74079 0.05044,0.0953 0.110794,0.15705 0.213857,0.14955 -0.206129,-0.9833 0.01357,-0.0805 -2.386015,1.26691 -0.03265,0.0183 0.06303,-0.0443 0.08248,-0.0763 0.04261,-0.0701 0.06891,-0.14897 0.10043,-0.22472 0.31201,-0.74991 -0.135025,0.26955 0.272651,-0.64648 0.575371,-1.15828 1.193945,-2.29411 1.782297,-3.44622 1.001408,-2.01907 1.794308,-4.12963 2.4785,-6.27443 0.521716,-1.71153 0.910717,-3.46054 1.232014,-5.21976 0.09893,-0.5002 0.208568,-0.99829 0.331567,-1.49313 0.0081,-0.0246 0.01622,-0.0492 0.02432,-0.0737 0,0 2.533388,-1.23754 2.533388,-1.23754 v 0 c -0.0021,0.0357 -0.0043,0.0714 -0.0064,0.10705 -0.183534,0.48758 -0.294177,0.99989 -0.420897,1.50387 -0.388882,1.77408 -0.774676,3.55149 -1.308171,5.28917 -0.684834,2.13846 -1.452891,4.25056 -2.403732,6.28678 -0.571256,1.13769 -1.159695,2.26652 -1.722818,3.40778 -0.128313,0.27002 -0.259231,0.55546 -0.33959,0.84487 -0.01627,0.0586 0.02617,0.14739 -0.02469,0.18076 -2.379448,1.56137 -1.687409,1.99436 -2.564588,1.39298 -0.144086,-0.0828 -0.256426,-0.20564 -0.330446,-0.35469 -0.09833,-0.26021 -0.282128,-0.49179 -0.340772,-0.77128 -0.162539,-0.48334 -0.375897,-0.94894 -0.510059,-1.44212 -0.171408,-0.5772 -0.304392,-1.16435 -0.453575,-1.74754 -0.146005,-0.72683 -0.289407,-1.45416 -0.420365,-2.18381 -0.182996,-0.89692 -0.376465,-1.79168 -0.563737,-2.6877 -0.202501,-0.93673 -0.505269,-1.84512 -0.774512,-2.76418 -0.301186,-0.7963 -0.644089,-1.57325 -0.991965,-2.34885 -0.204976,-0.42272 -0.429279,-0.85614 -0.54645,-1.30992 -0.03354,-0.0982 5.3e-4,-0.0132 -0.06407,-0.12332 -0.396042,-0.67434 3.175317,-2.09123 2.285859,-1.22208 -0.12478,0.13909 -0.05543,0.0723 -0.210105,0.19828 -0.292346,0.30585 -0.496269,0.69459 -0.76513,1.01881 -0.614357,0.8984 -1.191932,1.82068 -1.806173,2.71911 -0.703617,0.99256 -1.41805,1.97431 -2.193563,2.91308 -0.759454,1.08227 -1.401206,2.24246 -1.827011,3.49885 -0.385564,1.11715 -0.754851,2.26125 -0.793536,3.45301 0,0 -2.492181,1.26983 -2.492181,1.26983 z"
       inkscape:connector-curvature="0" />
    <path
       style="fill:#000000;fill-opacity:0;stroke-width:0.26458332"
       id="path846"
       d="m 74.725439,241.49184 c 0.26184,-1.44353 0.830456,-2.81701 1.419299,-4.15385 0.70924,-1.56626 1.529699,-3.07733 2.402451,-4.55745 0.320233,-0.51774 0.612341,-1.064 1.038696,-1.50458 0.71061,-0.64792 1.78077,-1.78869 2.784457,-1.45176 0.325561,0.41188 0.414837,0.99823 0.557127,1.4953 0.508434,1.49371 0.98247,2.99871 1.463816,4.50137 0.661371,1.99217 1.367919,3.9689 2.030333,5.96077 0.35928,1.09668 0.758415,2.18413 1.209061,3.24706 0.05614,0.0465 0.380595,0.84809 0.260818,0.34891 -0.781108,0.45909 -1.537599,0.96291 -2.343322,1.37729 -0.07115,0.0366 0.0657,-0.14601 0.09443,-0.22068 0.05198,-0.13515 0.09772,-0.27262 0.147598,-0.40857 0.332557,-0.90647 0.678682,-1.80626 1.032367,-2.70475 1.372526,-3.30858 3.005629,-6.49883 4.76182,-9.61769 1.328102,-2.34926 2.784403,-4.62139 4.186316,-6.92607 0.383506,-0.5944 0.725721,-1.21354 1.082866,-1.82369 0,0 2.540222,-1.12089 2.540222,-1.12089 v 0 c -0.403831,0.6124 -0.748088,1.26155 -1.171273,1.86181 -1.456743,2.31941 -2.977269,4.60005 -4.334936,6.98079 -1.747181,3.08347 -3.386553,6.23623 -4.683458,9.53934 -0.320294,0.87384 -0.630762,1.74832 -0.912765,2.63529 -0.04203,0.13219 -0.08,0.26564 -0.117999,0.39904 -0.02212,0.0777 0.0031,0.18691 -0.06237,0.23416 -0.779801,0.5624 -1.617231,1.04024 -2.425848,1.56035 -0.268671,-0.18281 -0.35396,-0.46695 -0.481084,-0.75882 -0.416412,-1.08884 -0.772607,-2.20344 -1.132126,-3.3117 -0.627705,-2.00461 -1.330007,-3.9829 -2.016403,-5.96782 -0.493027,-1.49493 -0.993629,-2.98733 -1.550648,-4.45979 -0.0245,-0.0763 -0.361445,-1.16 -0.413322,-1.19632 -0.0085,-0.006 -0.01672,0.0125 -0.02508,0.0188 -0.04915,0.0178 -0.185648,0.0959 -0.140423,0.0697 2.518167,-1.45849 3.133633,-1.79627 2.266112,-1.31901 -0.511884,0.3698 -0.808572,0.94349 -1.152412,1.4584 -0.907671,1.46525 -1.755259,2.97013 -2.459392,4.54507 -0.568595,1.28655 -1.112578,2.6066 -1.359376,3.99842 0,0 -2.495547,1.27154 -2.495547,1.27154 z"
       inkscape:connector-curvature="0" />
    <g
       aria-label="v"
       style="font-style:normal;font-variant:normal;font-weight:normal;font-stretch:normal;font-size:14.11111069px;line-height:1.25;font-family:Silom;-inkscape-font-specification:Silom;letter-spacing:0px;word-spacing:0px;fill:#000000;fill-opacity:1;stroke:none;stroke-width:0.26458332"
       id="text875" />
    <text
       xml:space="preserve"
       style="font-style:normal;font-variant:normal;font-weight:normal;font-stretch:normal;font-size:14.11111069px;line-height:1.25;font-family:Silom;-inkscape-font-specification:Silom;letter-spacing:0px;word-spacing:0px;fill:#000000;fill-opacity:1;stroke:none;stroke-width:0.26458332"
       x="37.685001"
       y="213.61191"
       id="text879"><tspan
         sodipodi:role="line"
         id="tspan877"
         x="37.685001"
         y="225.98956"
         style="stroke-width:0.26458332" /></text>
    <g
       aria-label="v"
       transform="matrix(-1.1558872,0,0,-1.1558872,-0.92505055,-67.004979)"
       style="font-style:normal;font-variant:normal;font-weight:normal;font-stretch:normal;font-size:14.11111069px;line-height:1.25;font-family:Silom;-inkscape-font-specification:Silom;letter-spacing:0px;word-spacing:0px;fill:#000000;fill-opacity:1;stroke:none;stroke-width:0.26458332"
       id="text895"
       inkscape:export-xdpi="153.267"
       inkscape:export-ydpi="153.267">
      <path
         id="path900"
         style="font-style:normal;font-variant:normal;font-weight:bold;font-stretch:normal;font-size:35.27777863px;font-family:'.Arabic UI Text';-inkscape-font-specification:'.Arabic UI Text Bold';stroke-width:0.26458332"
         d="m -70.825868,-227.50991 h -6.166722 l -4.805908,13.33252 -4.788683,-13.33252 h -6.183947 l 7.596436,19.29253 h 6.769613 z m -30.411902,19.29253 h 6.166721 l 4.805908,-13.33252 4.788683,13.33252 h 6.183946 l -7.596435,-19.29254 h -6.769613 z"
         inkscape:connector-curvature="0" />
    </g>
    <g
       aria-label="E"
       transform="scale(1.1440333,0.87410044)"
       style="font-style:normal;font-variant:normal;font-weight:normal;font-stretch:normal;font-size:17.39092827px;line-height:1.25;font-family:Roboto;-inkscape-font-specification:Roboto;letter-spacing:0px;word-spacing:0px;fill:url(#linearGradient908);fill-opacity:1;stroke:none;stroke-width:0.32607993"
       id="text906"
       inkscape:export-xdpi="153.267"
       inkscape:export-ydpi="153.267">
      <path
         style="font-style:normal;font-variant:normal;font-weight:normal;font-stretch:normal;font-size:62.60734558px;font-family:'audio wide';-inkscape-font-specification:'audio wide';fill:url(#linearGradient908);fill-opacity:1;stroke-width:0.32607993"
         d="M 77.083519,293.36639 H 48.408866 q -1.65078,0 -3.607259,-0.58083 -1.95648,-0.58083 -3.637829,-1.89534 -1.65078,-1.34508 -2.78187,-3.4544 -1.100519,-2.1399 -1.100519,-5.22747 v -28.67466 q 0,-0.82539 0.3057,-1.55907 0.305699,-0.73368 0.825389,-1.28394 0.55026,-0.55026 1.28394,-0.85596 0.73368,-0.3057 1.58964,-0.3057 h 35.797461 v 7.9482 H 45.229587 v 24.73113 q 0,1.55907 0.82539,2.38446 0.825389,0.82539 2.415029,0.82539 h 28.613513 z"
         id="path918" />
    </g>
    <g
       id="g912"
       style="font-style:normal;font-variant:normal;font-weight:normal;font-stretch:normal;font-size:14.11111069px;line-height:1.25;font-family:Silom;-inkscape-font-specification:Silom;letter-spacing:0px;word-spacing:0px;fill:url(#linearGradient940);fill-opacity:1;stroke:none;stroke-width:0.26473171;stroke-miterlimit:4;stroke-dasharray:none"
       transform="matrix(-1.1558872,0,0,-1.1558872,-28.97088,-14.617478)"
       aria-label="v"
       inkscape:export-xdpi="153.267"
       inkscape:export-ydpi="153.267">
      <path
         inkscape:connector-curvature="0"
         d="m -70.825868,-227.50991 h -6.166722 l -4.805908,13.33252 -4.788683,-13.33252 h -6.183947 l 7.596436,19.29253 h 6.769613 z m -30.411902,19.29253 h 6.166721 l 4.805908,-13.33252 4.788683,13.33252 h 6.183946 l -7.596435,-19.29254 h -6.769613 z"
         style="font-style:normal;font-variant:normal;font-weight:bold;font-stretch:normal;font-size:35.27777863px;font-family:'.Arabic UI Text';-inkscape-font-specification:'.Arabic UI Text Bold';stroke-width:0.26473171;fill:url(#linearGradient942);fill-opacity:1;stroke:none;stroke-miterlimit:4;stroke-dasharray:none"
         id="path910" />
    </g>
  </g>
</svg>
